<?xml version="1.0" encoding="utf-8"?>
<!-- Generator: Adobe Illustrator 21.0.0, SVG Export Plug-In . SVG Version: 6.00 Build 0)  -->
<svg version="1.1" id="Layer_1" xmlns="http://www.w3.org/2000/svg" xmlns:xlink="http://www.w3.org/1999/xlink" x="0px" y="0px"
	 width="185px" height="43.8px" viewBox="0 0 185 43.8" style="enable-background:new 0 0 185 43.8;" xml:space="preserve">
<style type="text/css">
	.st0{fill:#FFFFFF;}
	.st1{fill:#B5E1E1;}
	.st2{fill:#7ECDC3;}
	.st3{fill:#FFF218;}
	.st4{fill:#F196A7;}
	.st5{fill:#8ED1BF;}
</style>
<g id="Layer_3">
</g>
<g id="Layer_1_1_">
	<g>
		<path class="st0" d="M182.2,2.2c1,0,1.8,0.8,1.8,1.8c0,1.1-0.8,1.8-1.8,1.8S180.4,5,180.4,4S181.2,2.2,182.2,2.2z M182.2,5.4
			c0.8,0,1.4-0.6,1.4-1.5s-0.6-1.5-1.4-1.5c-0.8,0-1.5,0.6-1.5,1.5C180.8,4.8,181.4,5.4,182.2,5.4z M181.5,2.9h0.8
			c0.5,0,0.7,0.2,0.7,0.6S182.7,4,182.5,4l0.6,0.9h-0.4L182.2,4h-0.4v0.9h-0.4L181.5,2.9L181.5,2.9z M181.8,3.9h0.4
			c0.3,0,0.5,0,0.5-0.4c0-0.3-0.3-0.4-0.4-0.4h-0.4v0.8H181.8z"/>
	</g>
	<g>
		<path class="st0" d="M58.6,22.3c0-1.1-0.5-1.8-1.7-1.8c-0.2,0-0.4,0-0.5,0c-0.2,0-0.4,0-0.4-0.2c-0.2-0.1,0-0.3,0.5-0.3
			c0.2,0,0.4-0.1,0.6-0.1c1,0,1.7,0.4,1.9,1.2c0.2,0.4,0.3,0.8,0.3,1.3s-0.3,1.2-0.7,2c-0.8,1.5-2.1,2.6-3.9,3.3
			c-0.6,0.3-1.2,0.4-1.8,0.4S51.7,28,51,27.7c-1.2-0.6-2.1-1.6-2.5-2.9c-0.2-0.5-0.3-1.2-0.3-2s0.3-1.8,0.7-3.1
			c1.1-2.5,2.7-4.5,5.1-6.1c2.5-1.8,4.9-2.7,7.1-2.7c1.8,0,3.2,0.8,3.8,2.3c0.3,0.6,0.4,1.4,0.4,2.4c0,0.3,0,0.6-0.1,1
			c-0.2,1.5-0.6,3.1-1.3,5c-0.1,0.4-0.2,0.5-0.2,0.6s0,0.2,0.1,0.2s0.3-0.2,0.4-0.5c1.2-2.3,2.6-4.3,4-6c0.5-0.6,1.1-1.1,1.8-1.4
			c0.8-0.4,1.4-0.6,2-0.6s1.1,0.2,1.4,0.6c0.4,0.4,0.5,1.1,0.5,1.8c0,1.7-0.7,4.5-2,8.4c-0.3,0.8-0.4,1.3-0.5,1.5
			c1.3-2.1,3.1-4.5,5.1-7s3.9-4,5.4-4.5c0.3-0.1,0.5-0.1,0.8-0.1c0.6,0,1.1,0.4,1.2,1C84,15.8,84,16,84,16.4c0,0.9-0.4,1.9-1,3.2
			c-1.4,2.7-2.3,4.9-2.8,6.5c-0.7,2.1-1.1,3.6-1.1,4.4s0.1,1.4,0.3,1.9c0.3,1.1,1.1,1.6,2.4,1.6c0.1,0,0.2,0,0.4,0
			c0.2,0,0.4,0,0.4,0.1s0,0.2-0.2,0.3s-0.3,0.1-0.4,0.1c-0.2,0-0.3,0-0.4,0c-2.6-0.3-3.9-1.6-3.9-4c0-0.9,0.2-1.9,0.5-3
			c0.4-1.1,0.7-2,0.9-2.6c0.4-1,1.2-2.9,2.5-5.7c0.4-1.1,0.7-1.8,0.7-2.4c0-0.5-0.3-0.8-0.7-0.8c-0.6,0-1.7,0.7-3,2
			c-0.7,0.7-1.5,1.6-2.3,2.5c-0.8,1.1-2,2.8-3.6,5.3s-2.6,4.3-3.1,5.3c-0.4,0.9-0.9,1.3-1.5,1.3c-0.4,0-0.7-0.2-0.8-0.4
			c-0.1-0.2-0.1-0.3,0-0.4s0.2-0.4,0.4-0.9c0.3-0.5,0.5-1,0.8-1.5s0.6-1.2,1.1-2.2c0.4-0.9,0.8-1.8,1.1-2.8c0.8-2.4,1.3-4.7,1.7-7.3
			c0-0.3,0.1-0.6,0.1-1.1s-0.1-0.8-0.4-1.1s-0.4-0.4-0.7-0.4c-0.8,0-1.8,0.6-2.7,1.8c-1.3,1.7-2.5,3.2-3.5,4.8s-1.8,2.9-2.3,4
			s-1.1,2.4-1.8,3.9S60,31.2,60,31.3s-0.1,0.3-0.2,0.4c-0.1,0.2-0.2,0.3-0.2,0.4c-0.2,0.5-0.7,0.7-1.4,0.7c-0.4,0-0.6-0.2-0.7-0.4
			c0-0.1,0-0.1,0-0.2c1.1-1.7,2.3-4.3,3.7-7.7c1.7-4.4,2.5-7.5,2.5-9.6c0-2.4-1-3.6-3-3.6c-1.2,0-2.9,0.6-4.8,1.8
			c-1.9,1.2-3.5,2.8-4.8,4.6c-0.5,0.8-0.9,1.5-1.1,2.2c-0.4,1.3-0.6,2.3-0.6,3.1c0,2.2,0.7,3.6,2.2,4.2c0.5,0.3,1,0.4,1.5,0.4
			c1.8,0,3.2-1,4.4-2.9C58.2,23.9,58.6,23.1,58.6,22.3z"/>
		<path class="st0" d="M88.7,26.5c-0.5,1.1-0.9,1.8-1,2.4c-0.1,0.5-0.2,1-0.2,1.3s0.1,0.5,0.4,0.5c0.4,0,0.7-0.3,1.1-0.9
			c0.7-0.9,1.3-1.9,2-3.3c0.1-0.2,0.2-0.3,0.3-0.3c0.2-0.1,0.2,0,0.2,0.2c0,0.1,0,0.2-0.1,0.3c-1.5,3.1-2.8,4.6-3.9,4.6
			c-0.5,0-0.9-0.3-1.1-0.7c-0.2-0.3-0.3-0.6-0.3-1s0.1-1,0.3-1.5c-1.3,2.1-2.5,3.2-3.4,3.2c-0.3,0-0.5-0.1-0.7-0.3
			c-0.5-0.4-0.8-1-0.8-1.8c0-1.7,0.7-3.3,2.1-5c0.8-1,1.8-1.6,3-1.8c0.4-0.1,0.6-0.1,0.9-0.1c0.8,0,1.4,0.3,1.9,0.8
			c0.2,0.2,0.2,0.4,0.2,0.5c-0.1,0.2-0.2,0.3-0.4,0.2c-0.2-0.6-0.6-0.9-1.2-0.9c-0.7,0-1.6,0.5-2.6,1.7c-0.6,0.7-1.1,1.5-1.7,2.4
			c-0.6,1.1-1,1.9-1,2.6c0,0.6,0.2,1,0.6,1c1,0,2.3-1.5,3.9-4.6c0.4-0.6,0.6-1.1,0.8-1.2c0.2-0.3,0.5-0.4,0.8-0.4
			c0.1,0,0.3,0,0.5,0.1s0.4,0.1,0.6,0C89.7,24.8,89.2,25.4,88.7,26.5z"/>
		<path class="st0" d="M89.4,39.1c-1.6,0-2.4-0.6-2.4-1.9c0-1.1,0.7-2,2.2-2.9c1.2-0.7,2.8-1.4,4.7-2c0.9-0.3,1.5-0.5,1.9-0.7
			c0.4-1.2,0.6-2.6,0.6-4.1c0-0.3,0-0.5-0.1-0.7c-0.4,1-1.1,1.9-1.9,2.9c-1,1.2-1.9,1.7-2.9,1.4c-0.9-0.4-1.3-1.1-1.3-2.1
			c0-1.4,0.7-3,2.2-4.7c0.8-1,1.7-1.5,2.7-1.8c0.3-0.1,0.5-0.1,0.9-0.1c0.8,0,1.5,0.3,2.2,0.8c0.3,0.2,0.4,0.4,0.4,0.5
			c0,0.2-0.1,0.3-0.2,0.4c-0.1,0.2-0.2,0.2-0.4,0.1c0.1-0.1,0-0.2,0-0.4c-0.2-0.6-0.5-1-1.1-1c-0.9,0-1.8,0.6-3,1.8
			c-0.6,0.7-1.1,1.5-1.6,2.3c-0.5,1-0.8,1.8-0.8,2.3s0.2,0.9,0.5,1.1c0.1,0.1,0.3,0.1,0.4,0.1c0.4,0,0.9-0.3,1.4-0.8
			c0.6-0.5,1.1-1.2,1.6-2s0.8-1.4,1-1.9c0.2-0.4,0.3-0.7,0.5-0.9c0.2-0.1,0.4-0.2,0.6-0.2c0.3,0,0.4-0.1,0.4-0.1
			c0.2,0.8,0.2,1.7,0.2,2.6c0,1-0.2,2.2-0.5,3.4c0.8-0.5,1.3-1.1,1.7-1.5c0.4-0.4,0.6-0.8,0.8-1.1c0.2-0.4,0.4-0.7,0.5-1.1
			c0.2-0.4,0.3-0.5,0.3-0.7c0.1-0.1,0.2-0.2,0.3-0.2c0.1,0,0.2,0,0.2,0.2c0,0.1,0,0.2-0.1,0.3c-0.7,1.5-1.3,2.6-1.8,3.2
			c-0.5,0.7-1.1,1.2-2,1.6c-0.4,1.1-1,2.3-1.8,3.3c-0.8,1.1-1.8,2.1-2.9,3C91.7,38.7,90.6,39.1,89.4,39.1z M87.6,37.7
			c0,0.6,0.4,1,1.2,1c0.5,0,1.1-0.2,1.7-0.4s1.1-0.6,1.5-0.9c0.7-0.5,1.4-1.4,2.3-2.5c0.6-0.9,1.1-1.7,1.4-2.5l-0.9,0.3
			c-2.6,0.9-4.5,1.7-5.5,2.4c-0.8,0.5-1.3,1.1-1.6,2C87.7,37.3,87.6,37.5,87.6,37.7z"/>
		<path class="st0" d="M101.9,30.7c0.4,0,0.6-0.2,1-0.4c0.6-0.6,1.4-1.8,2.4-3.8c0.1-0.3,0.3-0.4,0.4-0.3c0,0,0.1,0.1,0.1,0.2
			s-0.1,0.3-0.2,0.5c-0.2,0.3-0.3,0.5-0.4,0.8s-0.4,0.6-0.6,1.1c-0.4,0.5-0.6,1-0.9,1.2c-0.7,0.8-1.3,1.1-1.9,1.1s-1.1-0.2-1.3-0.5
			c-0.3-0.4-0.4-0.8-0.4-1.2c0-0.4,0.1-1,0.4-1.5l1.6-4c0-0.1,0.1-0.3,0.1-0.4s-0.1-0.4-0.3-0.6h1.4c0.4,0,0.6,0.1,0.7,0.2
			c0.1,0.2,0,0.4-0.2,0.7l-2,4.6c-0.3,0.6-0.4,1.1-0.4,1.6C101.2,30.4,101.4,30.7,101.9,30.7z M104.3,21.6c-0.3,0.2-0.5,0.3-0.8,0.3
			s-0.5-0.1-0.7-0.3c-0.2-0.2-0.3-0.4-0.2-0.7c0.1-0.3,0.2-0.5,0.4-0.7s0.5-0.3,0.8-0.3s0.5,0.1,0.7,0.3c0.2,0.2,0.3,0.4,0.2,0.7
			C104.8,21.1,104.6,21.3,104.3,21.6z"/>
		<path class="st0" d="M109.8,25.5c0.6-0.7,0.9-1.3,0.9-1.8s-0.2-0.7-0.6-0.7c-0.8,0-1.7,0.7-2.7,2.1c-0.4,0.4-0.6,1.1-1,1.8
			c-0.3,0.7-0.4,1.4-0.4,2s0.1,1.1,0.4,1.4c0.3,0.4,0.6,0.5,1.1,0.5s1-0.1,1.4-0.4s0.9-0.6,1.2-1.1s0.7-1,0.9-1.3s0.4-0.9,0.8-1.6
			c0.1-0.3,0.2-0.4,0.3-0.3c0.1,0,0.1,0.1,0.1,0.2s-0.1,0.4-0.4,0.8s-0.4,1-0.7,1.3c-0.3,0.4-0.5,0.9-1,1.4c-0.8,1-1.8,1.4-3.1,1.4
			c-1,0-1.6-0.3-2-0.7c-0.4-0.4-0.6-1-0.6-1.6c0-0.7,0.2-1.5,0.5-2.4c0.4-0.9,0.8-1.6,1.2-2.3c1-1.3,2.1-2,3.3-2
			c0.6,0,1.1,0.2,1.3,0.4c0.3,0.3,0.4,0.6,0.4,1.1s-0.3,1.1-0.7,1.5C110.1,25.4,110,25.6,109.8,25.5C110.1,25.7,110,25.6,109.8,25.5
			z"/>
		<path class="st0" d="M127.4,22.2c0-1.1-0.5-1.6-1.7-1.6c-0.2,0-0.3,0-0.4,0s-0.3,0-0.3-0.1s0-0.1,0-0.2c0.2-0.2,0.6-0.3,1.5-0.3
			s1.4,0.4,1.7,1.1c0.1,0.3,0.2,0.6,0.2,0.9c0,0.7-0.3,1.5-0.8,2.5c-0.9,1.5-2.1,2.5-3.7,3.2c-0.8,0.4-1.8,0.5-2.7,0.5
			c-1,0-1.9-0.4-2.7-1.1c-0.8-0.7-1.3-1.7-1.6-2.9c-0.1-0.4-0.1-0.7-0.1-1.1c0-1,0.3-2.2,0.8-3.5s1.4-2.6,2.7-3.8
			c2.4-2.4,4.8-3.8,7.5-4.3c0.7-0.2,1.4-0.3,1.9-0.3s1.1,0,1.4,0.1c1.1,0.2,1.8,0.6,2.5,1.5c0.4,0.6,0.7,1.5,0.7,2.5
			c0,0.9-0.1,1.7-0.3,2.3s-0.4,1-0.4,1.2c-0.1,0.2-0.2,0.5-0.4,0.9s-0.3,0.6-0.4,0.8c-0.1,0.1-0.2,0.4-0.4,0.9
			c-0.7,1.5-1.1,2.3-1,2.3l0.8-1.2c1.1-1.6,2.1-3.1,3.3-4.5c2.2-2.6,4.2-4.4,6-5.2c1-0.4,1.8-0.7,2.5-0.7s1.3,0.2,1.8,0.5
			c0.5,0.4,0.7,1,0.7,1.8c0,0.9-0.3,1.9-0.8,3.2c-0.5,1.2-1.3,2.8-2.4,4.7s-1.9,3.7-2.7,5.3c-0.7,1.6-1.1,3-1.1,4.2
			c0,0.4,0.1,0.8,0.2,1.1c0.3,0.8,0.7,1.1,1.3,1.1c0.4,0,0.8-0.1,1.1-0.3c0.4-0.2,0.7-0.3,0.9-0.3s0.3,0.1,0.3,0.4
			c0,0.2-0.2,0.4-0.4,0.6c-0.4,0.2-0.6,0.3-0.8,0.3c-2.6,0-4-1.1-4-3.5c0-0.9,0.2-1.7,0.4-2.5s1.3-3.2,3.1-6.9s2.7-6.1,2.9-7.1
			c0-0.2,0.1-0.3,0.1-0.4c0-0.7-0.4-1.1-1.2-1.1c-0.5,0-1.1,0.2-1.8,0.5c-2.6,1.2-5.1,3.7-7.5,7.2c-1.4,2.1-3,5-4.7,8.9
			c-0.6,1.4-1,2.1-1.1,2.2c-0.3,0.5-0.7,0.7-1.4,0.7c-0.4,0-0.6-0.2-0.7-0.4c0-0.1,0-0.1,0-0.2c0.8-1.1,1.9-3.3,3.3-6.6
			c1.4-3.2,2.5-6,3-8.3c0.2-0.8,0.3-1.5,0.3-2.1s-0.1-1.1-0.3-1.6c-0.4-0.9-1-1.4-1.8-1.5c-0.3,0-0.6-0.1-1.1-0.1s-1.1,0.1-2,0.4
			c-0.9,0.3-1.9,0.7-3,1.4c-2.5,1.6-4.3,3.6-5.4,6.1c-0.6,1.4-1,2.6-1,3.8c0,0.6,0.1,1.1,0.3,1.7c0.5,1.4,1.5,2.1,2.9,2.2
			c1.8,0,3.2-0.7,4.5-2.1C126.9,24.5,127.4,23.3,127.4,22.2z"/>
		<path class="st0" d="M145.3,27.4c-0.3,0.5-0.4,1.2-0.4,1.9c0,0.4,0.1,0.9,0.4,1.1c0.2,0.3,0.5,0.4,0.9,0.4c1.5,0,2.9-1.4,4.1-4.3
			c0.1-0.3,0.3-0.4,0.4-0.4c0.1,0,0.1,0.1,0.1,0.1c0,0.1-0.2,0.5-0.5,1.3c-0.4,0.8-0.8,1.5-1.1,1.9c-0.9,1.1-1.9,1.8-3.2,1.8
			c-0.7,0-1.2-0.2-1.7-0.6c-0.4-0.4-0.7-1.1-0.7-1.8c0-0.8,0.2-1.6,0.5-2.4c0.4-0.9,0.9-1.7,1.5-2.4c0.6-0.7,1.3-1.2,2.1-1.6
			c0.4-0.2,0.8-0.3,1.1-0.3c0.4,0,0.7,0.1,1,0.3c0.3,0.3,0.4,0.5,0.4,0.8c0,1-0.6,1.9-1.8,2.9c-0.4,0.3-0.9,0.5-1.6,0.8
			C146.1,27.3,145.6,27.4,145.3,27.4z M149.5,23.4c0-0.4-0.2-0.5-0.4-0.5c-0.4,0-1.1,0.6-2.1,1.8c-0.5,0.7-1.1,1.5-1.5,2.4
			c0.3,0,0.7-0.1,1.2-0.3c0.5-0.2,1.1-0.4,1.4-0.8C149,25.1,149.5,24.3,149.5,23.4z"/>
		<path class="st0" d="M151.5,27.4c-0.3,0.5-0.4,1.2-0.4,1.9c0,0.4,0.1,0.9,0.4,1.1c0.2,0.3,0.5,0.4,0.9,0.4c1.5,0,2.9-1.4,4.1-4.3
			c0.1-0.3,0.3-0.4,0.4-0.4c0.1,0,0.1,0.1,0.1,0.1c0,0.1-0.2,0.5-0.5,1.3c-0.4,0.8-0.8,1.5-1.1,1.9c-0.9,1.1-1.9,1.8-3.2,1.8
			c-0.7,0-1.2-0.2-1.7-0.6c-0.4-0.4-0.7-1.1-0.7-1.8c0-0.8,0.2-1.6,0.5-2.4c0.4-0.9,0.9-1.7,1.5-2.4c0.6-0.7,1.3-1.2,2.1-1.6
			c0.4-0.2,0.8-0.3,1.1-0.3c0.4,0,0.7,0.1,1,0.3c0.3,0.3,0.4,0.5,0.4,0.8c0,1-0.6,1.9-1.8,2.9c-0.4,0.3-0.9,0.5-1.6,0.8
			C152.3,27.3,151.8,27.4,151.5,27.4z M155.6,23.4c0-0.4-0.2-0.5-0.4-0.5c-0.4,0-1.1,0.6-2.1,1.8c-0.5,0.7-1.1,1.5-1.5,2.4
			c0.3,0,0.7-0.1,1.2-0.3c0.5-0.2,1.1-0.4,1.4-0.8C155.2,25.1,155.6,24.3,155.6,23.4z"/>
		<path class="st0" d="M161.7,29.8c0,0.5,0.2,0.8,0.6,0.8c0.8,0,1.8-1.3,3.2-3.9c0.1-0.1,0.1-0.2,0.2-0.3c0-0.1,0.1-0.2,0.2-0.2
			c0.1,0,0.2,0,0.2,0.1s0,0.2-0.1,0.4c-1.3,3.1-2.7,4.6-4,4.6c-0.4,0-0.8-0.2-1.1-0.6s-0.4-0.8-0.4-1.2c0-0.4,0-0.8,0.1-1.1
			c-1,1.6-1.8,2.5-2.5,2.7c-0.2,0.1-0.4,0.1-0.6,0.1s-0.4,0-0.5-0.1c-0.8-0.2-1.2-0.9-1.2-1.9c0-0.7,0.2-1.6,0.5-2.5
			s0.9-1.8,1.6-2.5c0.7-0.8,1.5-1.4,2.5-1.7c0.4-0.1,0.8-0.2,1.2-0.2s1,0.2,1.6,0.4c1.1-2.1,2.1-4.1,2.9-6c0.3-0.5,0.4-0.9,0.7-1.1
			c0.3-0.2,0.4-0.3,0.6-0.3c0.2,0,0.4,0,0.4,0s0.2,0,0.4,0.1c0.3,0,0.5,0.1,0.6,0c-0.4,0.4-1.4,2-3.1,5.1c-2.1,3.9-3.3,6.5-3.8,7.8
			C161.8,29.1,161.7,29.5,161.7,29.8z M163,23.2c-0.2-0.2-0.5-0.4-0.9-0.4s-1,0.3-1.7,0.9c-1.1,1-2,2.1-2.8,3.4
			c-0.5,0.9-0.7,1.7-0.7,2.2c0,0.3,0.1,0.5,0.2,0.7c0.1,0.2,0.3,0.4,0.5,0.4c0.5,0,1.2-0.6,2.1-1.8C160.5,27.6,161.6,25.8,163,23.2z
			"/>
		<path class="st0" d="M166.8,27.1c-0.2,0.4-0.3,0.8-0.4,1.1c-0.1,0.4-0.2,0.7-0.2,1.1s0.1,0.7,0.3,1c0.2,0.4,0.4,0.4,0.8,0.4
			c0.6,0,1.2-0.4,1.8-1.2s1.1-1.8,1.8-3.1c0.2-0.3,0.3-0.4,0.4-0.3c0.1,0.1,0.1,0.2,0.1,0.3c-0.1,0.1-0.2,0.4-0.4,0.7
			s-0.3,0.6-0.4,0.8c-0.1,0.2-0.2,0.4-0.4,0.8s-0.4,0.6-0.5,0.8c-0.2,0.2-0.4,0.4-0.6,0.7s-0.4,0.4-0.7,0.6
			c-0.6,0.4-1.1,0.5-1.7,0.5c-0.5,0-0.9-0.1-1.2-0.4s-0.4-0.4-0.5-0.7c-0.1-0.3-0.1-0.5-0.1-0.7s0-0.4,0-0.8
			c0.1-0.5,0.2-1.1,0.4-1.6s0.3-0.8,0.3-0.9c0.4-1.4,1-2.9,1.7-4.6s1.3-2.9,1.8-3.7c0.5-0.8,0.9-1.4,1.1-1.7
			c0.5-0.6,1.1-0.9,1.7-0.9c0.4,0,0.6,0.3,0.8,0.8c0,0.1,0,0.3,0,0.4c0,0.5-0.2,1.3-0.6,2.1c-1.4,3.2-3.2,5.7-5.1,7.5
			C167,26.5,166.9,26.7,166.8,27.1z M169.7,22.4c0.8-1.3,1.4-2.5,1.8-3.3c0.4-1,0.6-1.6,0.6-1.9c0-0.4-0.1-0.5-0.2-0.5
			c-0.2,0-0.5,0.4-1,1c-0.4,0.6-1.1,1.8-1.9,3.5c-0.8,1.7-1.4,3.2-1.9,4.5C168,24.7,168.9,23.7,169.7,22.4z"/>
		<path class="st0" d="M172.1,27.4c-0.3,0.5-0.4,1.2-0.4,1.9c0,0.4,0.1,0.9,0.4,1.1c0.2,0.3,0.5,0.4,0.9,0.4c1.5,0,2.9-1.4,4.1-4.3
			c0.1-0.3,0.3-0.4,0.4-0.4c0.1,0,0.1,0.1,0.1,0.1c0,0.1-0.2,0.5-0.5,1.3c-0.4,0.8-0.8,1.5-1.1,1.9c-0.9,1.1-1.9,1.8-3.2,1.8
			c-0.7,0-1.2-0.2-1.7-0.6c-0.4-0.4-0.7-1.1-0.7-1.8c0-0.8,0.2-1.6,0.5-2.4c0.4-0.9,0.9-1.7,1.5-2.4c0.6-0.7,1.3-1.2,2.1-1.6
			c0.4-0.2,0.8-0.3,1.1-0.3c0.4,0,0.7,0.1,1,0.3c0.3,0.3,0.4,0.5,0.4,0.8c0,1-0.6,1.9-1.8,2.9c-0.4,0.3-0.9,0.5-1.6,0.8
			C172.9,27.3,172.4,27.4,172.1,27.4z M176.2,23.4c0-0.4-0.2-0.5-0.4-0.5c-0.4,0-1.1,0.6-2.1,1.8c-0.5,0.7-1.1,1.5-1.5,2.4
			c0.3,0,0.7-0.1,1.2-0.3c0.5-0.2,1.1-0.4,1.4-0.8C175.8,25.1,176.2,24.3,176.2,23.4z"/>
		<path class="st0" d="M179.3,30.8c0.2,0,0.4,0.1,0.4,0.1c0.7,0,1.3-0.4,2-1.1c0.4-0.4,1-1.5,1.8-3.2c0-0.1,0.1-0.1,0.2-0.1
			c0.2,0,0.3,0,0.3,0.2c0,0,0,0.1-0.1,0.3c-0.1,0.2-0.2,0.4-0.2,0.4c-0.1,0.2-0.2,0.4-0.4,0.7c-0.2,0.3-0.3,0.5-0.4,0.7
			c-0.1,0.2-0.3,0.4-0.4,0.7c-0.2,0.3-0.4,0.4-0.5,0.6l-0.5,0.5c-0.3,0.3-0.6,0.5-1,0.6c-0.6,0.2-1.2,0.2-1.8,0.1
			c-0.4,0.2-0.7,0.3-1.1,0.3c-1.1,0-1.9-0.4-2.2-1.4c-0.1-0.2-0.1-0.4-0.1-0.8s0.1-0.6,0.4-0.9c0.2-0.3,0.4-0.4,0.7-0.4
			c0.9-1.6,1.6-3.1,2.2-4.4c0.7-1.4,1.4-2.1,2.3-2.1c0.3,0,0.4,0.1,0.7,0.2s0.4,0.3,0.3,0.4c-0.1,0.2-0.2,0.2-0.4,0.1
			s-0.4-0.1-0.4-0.1c-0.2,0-0.3,0-0.4,0.1c-0.5,0.3-0.9,0.9-0.9,1.8c0,0.4,0.1,0.9,0.2,1.1c0.2,0.3,0.3,0.6,0.4,1
			c0.4,0.9,0.6,1.6,0.6,2.1s-0.2,1.1-0.5,1.7C180.1,30,179.7,30.4,179.3,30.8z M176.5,29.9c0,0.1,0,0.2,0,0.4c0.2,0.4,0.4,0.7,1,0.7
			c0.2,0,0.4,0,0.5-0.1c-0.6-0.4-1-1.1-1-1.8C176.6,29.3,176.5,29.5,176.5,29.9z M178.4,30.6c0.7-0.5,1.1-1.5,1.1-2.7
			c0-0.5-0.1-1.2-0.2-2.1s-0.2-1.5-0.2-1.8c0-0.4,0-0.5,0-0.6c-1.2,2.5-2,4-2.4,4.6c0.4,0,0.5,0.3,0.5,0.8
			C177.3,29.6,177.7,30.2,178.4,30.6z"/>
	</g>
	<rect class="st0" width="43.8" height="43.8"/>
	<g>
		<path class="st1" d="M21.9,11V0H0v21.9h11C11,15.9,15.9,11,21.9,11z"/>
		<path class="st2" d="M21.9,0v11c2.1,0,4,0.6,5.7,1.6l3.7-6.4L30,6l1.2-1.8l-0.4-2.1l2,0.5l1.9-1v2.1l1.5,1.5l-2,0.7l-1,1.9
			l-0.8-1.1l-3.8,6.5c0.6,0.4,1.1,1,1.6,1.6l6.4-3.7l-1.1-0.8l1.9-1l0.7-2l1.5,1.5h2.1l-1,1.9l0.6,2l-2.1-0.4l-1.8,1.2l-0.2-1.4
			l-6,3.9c1.1,1.7,1.7,3.7,1.7,5.8h11V0H21.9z"/>
		<path class="st3" d="M17.9,32.2c-1.2,2-3.2,5.1-3.6,4.9c-0.3-0.2,1.3-3.4,2.4-5.5c-1.9-1.1-3.5-2.6-4.5-4.6
			c-2.1,1.1-5.4,2.8-5.6,2.5c-0.2-0.4,3.1-2.5,5-3.7c-0.4-1.2-0.7-2.5-0.7-3.9H0v21.9h21.9V32.9C20.5,32.9,19.1,32.6,17.9,32.2z"/>
		<path class="st4" d="M21.9,32.9v11h21.9v-22h-11C32.9,28,28,32.9,21.9,32.9z"/>
		<path class="st5" d="M17.3,20.6c-0.1,0-0.2,0-0.4,0c-0.3,0-0.4,0.1-0.4,0.2s0.1,0.1,0.3,0.1c0.1,0,0.2,0,0.3,0
			c0.5,0,0.9,0.3,0.9,0.9v0.1h0.4c0-0.3,0-0.4-0.1-0.6C18.1,20.9,17.7,20.6,17.3,20.6z"/>
		<path class="st1" d="M13.7,20.7c0.1-0.4,0.4-0.7,0.6-1.1c0.6-1,1.5-1.8,2.5-2.5c1-0.6,1.8-1,2.5-1c1.1,0,1.5,0.6,1.5,1.8
			c0,0.9-0.4,2.2-1,3.9h1.1c0.2-0.3,0.3-0.5,0.4-0.8c0.2-0.3,0.4-0.4,0.4-0.7v-0.5c-0.4,0.5-0.7,1.1-1,1.7c-0.1,0.2-0.2,0.3-0.2,0.3
			s0,0,0-0.1s0-0.2,0.1-0.4c0.4-1,0.6-1.8,0.7-2.5c0-0.2,0-0.4,0-0.4c0-0.4-0.1-0.9-0.3-1.2c-0.4-0.8-1-1.1-1.9-1.1
			c-1.1,0-2.4,0.4-3.7,1.4c-1.2,0.9-2.1,1.9-2.6,3.2c-0.2,0.5-0.3,1-0.4,1.4h0.7C13.4,21.6,13.5,21.1,13.7,20.7z"/>
		<path class="st2" d="M23.2,18.6c0.5-0.6,1-1,1.4-1c0.1,0,0.3,0.1,0.4,0.2s0.2,0.3,0.2,0.5s0,0.4,0,0.5c-0.1,1.1-0.4,2-0.6,3h0.7
			c0.4-1.5,0.7-2.6,0.7-3.4c0-0.4-0.1-0.7-0.3-0.9c-0.2-0.3-0.4-0.4-0.7-0.4c-0.4,0-0.7,0.1-1.1,0.4c-0.4,0.2-0.6,0.4-0.9,0.7
			c-0.4,0.4-0.8,1-1.1,1.5v0.5C22.4,19.8,22.8,19.2,23.2,18.6z"/>
		<path class="st2" d="M27.3,20.7c0.4-0.5,0.8-1,1.1-1.3c0.7-0.7,1.2-1.1,1.6-1.1c0.3,0,0.4,0.2,0.4,0.4c0,0.3-0.1,0.7-0.4,1.2
			c-0.4,0.8-0.6,1.4-0.9,1.9h0.8c0.3-0.5,0.5-1.1,0.8-1.7c0.4-0.7,0.5-1.2,0.5-1.7c0-0.2,0-0.3-0.1-0.4c-0.1-0.4-0.3-0.5-0.6-0.5
			c-0.1,0-0.3,0-0.4,0.1c-0.8,0.3-1.8,1.1-2.8,2.4c-0.5,0.6-1,1.2-1.4,1.8h0.4C26.6,21.4,27,21,27.3,20.7z"/>
		<path class="st3" d="M19.4,23c-0.7,1.8-1.3,3.2-1.9,4v0.1c0,0.2,0.2,0.2,0.4,0.2c0.4,0,0.6-0.1,0.7-0.4c0-0.1,0.1-0.2,0.1-0.2
			c0-0.1,0.1-0.2,0.1-0.2c0-0.1,0.2-0.4,0.6-1.2c0.4-0.8,0.7-1.5,1-2c0.2-0.4,0.4-0.8,0.7-1.3H20C19.6,22.3,19.5,22.6,19.4,23z"/>
		<path class="st3" d="M12.7,23.1c0.3,0.7,0.7,1.2,1.3,1.5c0.4,0.2,0.7,0.3,1,0.3s0.6-0.1,1-0.2c0.9-0.4,1.6-1,2-1.8
			c0.3-0.4,0.4-0.8,0.4-1.1l0,0H18c0,0.4-0.2,0.8-0.4,1.2c-0.6,1.1-1.4,1.5-2.3,1.5c-0.3,0-0.5-0.1-0.8-0.2
			c-0.7-0.4-1.1-1.1-1.1-2.2c0-0.1,0-0.3,0-0.4h-0.7c0,0.1,0,0.2,0,0.2C12.6,22.5,12.6,22.9,12.7,23.1z"/>
		<path class="st4" d="M28.7,22.9c-0.1,0.4-0.3,0.8-0.4,1.3c-0.2,0.6-0.3,1.1-0.3,1.6c0,1.2,0.7,1.9,2,2.1c0.1,0,0.1,0,0.2,0
			s0.2,0,0.3-0.1c0.1,0,0.1-0.1,0.1-0.1c0-0.1-0.1-0.1-0.2-0.1s-0.2,0-0.2,0c-0.7,0-1.1-0.3-1.2-0.8c-0.1-0.3-0.1-0.6-0.1-1.1
			c0-0.4,0.2-1.1,0.5-2.3c0.2-0.4,0.4-1.1,0.7-1.7h-0.8C28.9,22.4,28.8,22.7,28.7,22.9z"/>
		<path class="st4" d="M24.3,22.6c-0.2,0.5-0.4,1-0.5,1.5c-0.2,0.4-0.4,0.9-0.5,1.1c-0.2,0.3-0.3,0.5-0.4,0.8
			c-0.2,0.3-0.3,0.4-0.3,0.4s0,0.1,0,0.2c0,0.2,0.2,0.3,0.4,0.3c0.4,0,0.6-0.3,0.8-0.7c0.3-0.5,0.8-1.5,1.6-2.8
			c0.4-0.6,0.7-1.1,1-1.5H26c-0.4,0.6-0.9,1.2-1.2,1.8c0-0.1,0.1-0.4,0.3-0.8c0.1-0.4,0.3-0.7,0.4-1h-0.7
			C24.5,22.2,24.4,22.4,24.3,22.6z"/>
	</g>
</g>
</svg>
