<?xml version="1.0" encoding="utf-8"?>
<!-- Generator: Adobe Illustrator 21.0.0, SVG Export Plug-In . SVG Version: 6.00 Build 0)  -->
<svg version="1.1" id="_·_ÀÌ_î_1" xmlns="http://www.w3.org/2000/svg" xmlns:xlink="http://www.w3.org/1999/xlink" x="0px"
	 y="0px" width="154.8px" height="161.4px" viewBox="0 0 154.8 161.4" style="enable-background:new 0 0 154.8 161.4;"
	 xml:space="preserve">
<style type="text/css">
	.st0{fill:#444444;}
	.st1{fill:#FFF115;}
</style>
<path class="st0" d="M129,87.9H25.8c-1.1,0-2-0.9-2-2v-28c0-1.1,0.9-2,2-2H129c1.1,0,2,0.9,2,2v28C131,87,130.1,87.9,129,87.9z
	 M27.8,83.9H127v-24H27.8V83.9z"/>
<path class="st0" d="M119.6,133.6H108v-4h9.6V87.9H37.2v41.7H94v4H35.2c-1.1,0-2-0.9-2-2V85.9c0-1.1,0.9-2,2-2h84.4c1.1,0,2,0.9,2,2
	v45.7C121.6,132.7,120.7,133.6,119.6,133.6z"/>
<rect x="33.2" y="95.8" class="st0" width="88.4" height="4"/>
<path class="st0" d="M88.1,87.9H66.7c-1.1,0-2-0.9-2-2v-28c0-1.1,0.9-2,2-2h21.4c1.1,0,2,0.9,2,2v28C90.1,87,89.2,87.9,88.1,87.9z
	 M68.7,83.9h17.4v-24H68.7V83.9z"/>
<polyline class="st1" points="67.3,40.5 51.4,29.8 31.1,45.8 38.4,57.9 71,57.9 "/>
<path class="st0" d="M71,59.9H38.4c-0.7,0-1.4-0.4-1.7-1l-7.3-12.1c-0.5-0.9-0.3-2,0.5-2.6l20.3-16c0.7-0.5,1.6-0.6,2.4-0.1
	l15.9,10.7c0.9,0.6,1.2,1.9,0.5,2.8s-1.9,1.2-2.8,0.5l-14.7-9.9l-17.7,14l5.8,9.6H71c1.1,0,2,0.9,2,2S72.1,59.9,71,59.9z"/>
<polyline class="st1" points="85.9,41.6 103.4,29.8 123.7,45.8 116.4,57.9 80.9,57.9 "/>
<path class="st0" d="M116.4,59.9H80.9c-1.1,0-2-0.9-2-2s0.9-2,2-2h34.4l5.8-9.6l-17.7-14L87,43.3c-1,0.5-2.2,0-2.7-0.9
	c-0.4-0.8-0.2-1.7,0.5-2.3l17.5-11.8c0.7-0.5,1.7-0.5,2.4,0.1l20.3,16c0.8,0.6,1,1.7,0.5,2.6l-7.3,12
	C117.8,59.5,117.1,59.9,116.4,59.9z"/>
<path class="st0" d="M80.9,59.9h-9c-0.9,0-1.7-0.6-1.9-1.5L65.4,41c-0.3-1,0.2-2,1.2-2.3l9.1-3.9c0.5-0.2,1.1-0.2,1.6,0l9.1,3.9
	c0.9,0.4,1.4,1.4,1.1,2.3l-4.6,17.4C82.6,59.3,81.8,59.9,80.9,59.9z M73.4,55.9h5.9l3.8-14.2l-6.7-2.9l-6.7,2.9L73.4,55.9z"/>
</svg>
