<?xml version="1.0" encoding="utf-8"?>
<!-- Generator: Adobe Illustrator 21.0.0, SVG Export Plug-In . SVG Version: 6.00 Build 0)  -->
<svg version="1.1" id="_·_ÀÌ_î_1" xmlns="http://www.w3.org/2000/svg" xmlns:xlink="http://www.w3.org/1999/xlink" x="0px"
	 y="0px" width="154.8px" height="161.4px" viewBox="0 0 154.8 161.4" style="enable-background:new 0 0 154.8 161.4;"
	 xml:space="preserve">
<style type="text/css">
	.st0{fill:#444444;}
	.st1{fill:#B4E0E0;}
</style>
<path class="st0" d="M77.4,89.5c-11.8,0-16.1-11.4-16.2-22c-0.1-16.9,10.6-40.9,11.9-43.6c0.1-0.1,0.1-0.2,0.2-0.4
	c1.3-2.3,4.2-3.1,6.4-1.8c0.7,0.4,1.2,0.9,1.7,1.6c0.2,0.3,0.4,0.6,0.5,1c2.6,5.4,11.8,27.6,11.7,43.1
	C93.5,78.1,89.2,89.5,77.4,89.5z M77.4,25.1c-0.1,0-0.2,0-0.3,0.1c-0.1,0.1-0.2,0.2-0.3,0.3l-0.1,0.1c-1.2,2.6-11.6,25.8-11.5,41.8
	c0,3,0.7,18.1,12.2,18.1s12.1-15,12.2-18.1c0.1-14.7-9.1-36.8-11.3-41.5l-0.1-0.3c0-0.1,0-0.1-0.1-0.2
	C77.9,25.3,77.7,25.1,77.4,25.1z"/>
<path class="st0" d="M16.3,140.2L16.3,140.2c-2.1,0-4-1.4-4.6-3.5c0-0.2-0.1-0.4-0.1-0.6c0-0.1,0-0.3-0.1-0.4
	c-0.1-1.2,0.4-2.5,1.2-3.4c3.7-6.2,19.7-25,31.5-31.6c4.8-2.8,9.9-4.3,14.2-4.3c5.3-0.2,10.4,2.6,13,7.3c5.9,10.2-1.8,19.6-11,25
	c-14.5,8.5-40.7,11.2-43.6,11.5L16.3,140.2z M15.5,135.5v0.2c0.1,0.3,0.4,0.5,0.7,0.5h0.1c3.1-0.3,28.3-3,42-11
	c2.6-1.5,15.3-9.6,9.6-19.6c-2-3.5-5.2-5.3-9.5-5.3c-4.3,0.2-8.5,1.5-12.2,3.8c-10.8,6.2-26.7,24.5-30.1,30.4l-0.1,0.2l-0.2,0.2
	C15.6,135.1,15.5,135.3,15.5,135.5z"/>
<path class="st0" d="M138.6,140.2h-0.3H138c-0.2,0-5.9-0.6-13.5-1.9l-2-0.4l0.7-3.9l2,0.4c7.4,1.3,13,1.9,13.2,1.9h0.2h0.1h0.1
	c0.3-0.1,0.5-0.4,0.4-0.8c0-0.1-0.1-0.3-0.1-0.4c-1.6-2.3-16.6-23-30.5-30.9c-3.7-2.3-7.9-3.6-12.2-3.8c-4.3,0-7.5,1.8-9.5,5.3
	c-5.7,9.9,7,18,9.6,19.6c3.4,1.9,7.1,3.5,10.9,4.7l1.9,0.6l-1.3,3.8l-1.9-0.6c-4-1.3-7.9-3-11.6-5.1c-9.2-5.4-16.9-14.8-11-25
	c2.8-4.8,7.2-7.3,13-7.3c4.3,0,9.3,1.5,14.2,4.3c14.6,8.3,30.1,29.6,31.8,32c0.4,0.6,0.7,1.3,0.8,2.1v0.1c0.3,2.2-1,4.2-3.1,5
	c-0.3,0.1-0.5,0.2-0.8,0.2C139.2,140.2,138.9,140.2,138.6,140.2z"/>
<g>
	<path class="st1" d="M77.4,107.9c-5.7,0-10.3-4.6-10.3-10.3s4.6-10.3,10.3-10.3c5.7,0,10.3,4.6,10.3,10.3S83.1,107.9,77.4,107.9z"
		/>
	<path class="st0" d="M77.4,89.5c4.5,0,8.1,3.6,8.1,8.1s-3.6,8.1-8.1,8.1s-8.1-3.6-8.1-8.1S73,89.5,77.4,89.5 M77.4,85
		c-7,0-12.6,5.6-12.6,12.6s5.6,12.6,12.6,12.6S90,104.6,90,97.6S84.4,85,77.4,85L77.4,85z"/>
</g>
</svg>
