<?xml version="1.0" encoding="utf-8"?>
<!-- Generator: Adobe Illustrator 21.0.0, SVG Export Plug-In . SVG Version: 6.00 Build 0)  -->
<svg version="1.1" id="_·_ÀÌ_î_1" xmlns="http://www.w3.org/2000/svg" xmlns:xlink="http://www.w3.org/1999/xlink" x="0px"
	 y="0px" width="154.8px" height="161.4px" viewBox="0 0 154.8 161.4" style="enable-background:new 0 0 154.8 161.4;"
	 xml:space="preserve">
<style type="text/css">
	.st0{fill:#444444;}
	.st1{fill:#7ECCC2;}
	.st2{fill:#B4E0E0;}
	.st3{fill:#FFF115;}
	.st4{fill:#F196A7;}
</style>
<path class="st0" d="M62.6,128.6h-0.3c-8.3-1.3-12.7-7.1-14.8-11.1h-0.2c-18.2,0-33-12.4-33-27.6s14.7-27.6,33-27.6
	s33.1,12.4,33.1,27.6c0,11.4-8.3,21.5-20.8,25.6c1.3,6.5,4.5,9.6,4.5,9.7c0.8,0.8,0.8,2,0.1,2.8C63.7,128.3,63.1,128.6,62.6,128.6
	L62.6,128.6z M48.7,113.4c0.8,0,1.5,0.5,1.8,1.2c1.5,3.4,4,6.3,7.2,8.3c-1.3-2.7-2.1-5.5-2.5-8.5c-0.1-1,0.5-1.9,1.5-2.2
	c11.8-3.3,19.6-12.2,19.6-22.3c0-13-13-23.6-29.1-23.6s-29,10.6-29,23.6s13,23.6,29,23.6C47.8,113.4,48.2,113.4,48.7,113.4
	L48.7,113.4z"/>
<path class="st0" d="M77.7,118.7c-1.1,0-2-0.9-2-2c0-0.6,0.2-1.1,0.6-1.5c0,0,4.5-4.4,6.2-13.6c-2.2-0.7-4.4-1.6-6.4-2.6l1.8-3.6
	c2.4,1.2,4.9,2.1,7.5,2.8c1,0.3,1.6,1.2,1.4,2.2c-0.5,4.4-1.9,8.7-4,12.7c6-2.7,9.5-7.8,11.5-12c0.3-0.7,1.1-1.2,1.9-1.2
	c0.6,0,1.2,0,1.8,0c5.9,0,11.8-1.1,17.3-3.3l1.5,3.7c-6,2.4-12.4,3.6-18.8,3.6h-0.6c-2.7,5.2-8.3,12.9-19.2,14.6
	C77.9,118.7,77.8,118.7,77.7,118.7z"/>
<path class="st0" d="M132.3,89.5l-3-2.7c4.6-5,7.3-11.6,7.3-18.5c0-17.4-17.4-31.6-38.8-31.6c-20,0-37,12.7-38.7,29l-4-0.4
	c1.9-18.3,20.6-32.6,42.7-32.6c23.6,0,42.8,16,42.8,35.6C140.6,76.2,137.6,83.8,132.3,89.5z"/>
<path class="st1" d="M34.7,89.6c0,2-1.7,3.7-3.7,3.7s-3.7-1.7-3.7-3.7c0-2,1.7-3.7,3.7-3.7h0C33,85.9,34.7,87.6,34.7,89.6z"/>
<path class="st2" d="M51,89.6c0,2-1.7,3.7-3.7,3.7s-3.7-1.7-3.7-3.7c0-2,1.7-3.7,3.7-3.7l0,0C49.3,85.9,51,87.6,51,89.6z"/>
<path class="st3" d="M67.2,89.6c0,2-1.7,3.7-3.7,3.7c-2,0-3.7-1.7-3.7-3.7c0-2,1.7-3.7,3.7-3.7l0,0C65.6,85.9,67.2,87.6,67.2,89.6z"
	/>
<path class="st4" d="M85.4,67.9c0,2-1.7,3.7-3.7,3.7s-3.7-1.7-3.7-3.7c0-2,1.7-3.7,3.7-3.7l0,0C83.7,64.2,85.4,65.9,85.4,67.9z"/>
<path class="st4" d="M101.6,67.9c0,2-1.7,3.7-3.7,3.7s-3.7-1.7-3.7-3.7c0-2,1.7-3.7,3.7-3.7l0,0C100,64.2,101.6,65.9,101.6,67.9z"/>
<path class="st4" d="M117.9,67.9c0,2-1.7,3.7-3.7,3.7s-3.7-1.7-3.7-3.7c0-2,1.7-3.7,3.7-3.7l0,0C116.2,64.2,117.9,65.9,117.9,67.9z"
	/>
</svg>
