<?xml version="1.0" encoding="utf-8"?>
<!-- Generator: Adobe Illustrator 21.0.0, SVG Export Plug-In . SVG Version: 6.00 Build 0)  -->
<svg version="1.1" id="_·_ÀÌ_î_1" xmlns="http://www.w3.org/2000/svg" xmlns:xlink="http://www.w3.org/1999/xlink" x="0px"
	 y="0px" width="154.8px" height="161.4px" viewBox="0 0 154.8 161.4" style="enable-background:new 0 0 154.8 161.4;"
	 xml:space="preserve">
<style type="text/css">
	.st0{fill:#444444;}
	.st1{fill:#FFFFFF;}
	.st2{fill:#F196A7;}
</style>
<path class="st0" d="M77.4,127.7c-0.5,0-1-0.2-1.3-0.5c-4.2-3.8-8.7-7.4-13.5-11.3c-19.1-15.5-38.8-31.6-38.8-53.4
	c0-16.1,12.3-28.8,28.1-28.8c12.3,0,20.6,6.5,25.5,19.7c4.8-13.3,13.2-19.7,25.5-19.7c15.7,0,28.1,12.6,28.1,28.8
	c0,4.7-1,9.4-2.7,13.8l-0.7,1.8l-3.7-1.5l0.8-1.9c1.6-3.9,2.5-8.1,2.5-12.3c0-13.9-10.6-24.8-24.1-24.8c-12.2,0-19.6,7.3-23.6,23.1
	c-0.3,1.1-1.4,1.7-2.4,1.5c-0.7-0.2-1.3-0.7-1.5-1.5C71.6,45,64.1,37.7,52,37.7c-13.5,0-24.1,10.9-24.1,24.8
	c0,19.9,19,35.4,37.3,50.3c4.1,3.3,8.3,6.8,12.3,10.2c3.4-3,7-5.9,10.4-8.7l1.5-1.3l2.5,3.1l-1.6,1.3c-3.8,3.1-7.8,6.4-11.6,9.8
	C78.4,127.5,77.9,127.7,77.4,127.7z"/>
<path class="st1" d="M99.5,109.7L99.5,109.7c-0.7,0-1.2-0.3-1.6-0.7l-6.7-8.3c-0.7-0.9-0.6-2.1,0.3-2.8c0.9-0.7,2.1-0.6,2.8,0.3
	l5.3,6.5l10.8-11.3c0.8-0.8,2-0.8,2.8-0.1s0.8,2,0.1,2.8l-12.3,13C100.5,109.5,100,109.7,99.5,109.7z"/>
<g>
	<g>
		<path class="st2" d="M101.9,118.6c-10.4,0-18.9-8.5-18.9-18.9v-0.7c0-10.4,8.5-18.9,18.9-18.9h0.7c10.4,0,18.9,8.5,18.9,18.9v0.7
			c0,10.4-8.5,18.9-18.9,18.9H101.9z"/>
		<path class="st0" d="M102.6,82.3c9.2,0,16.7,7.5,16.7,16.7v0.7c0,9.2-7.5,16.7-16.7,16.7H102c-9.2,0-16.7-7.5-16.7-16.7v-0.7
			c0-9.2,7.5-16.7,16.7-16.7H102.6 M102.6,78.1H102c-11.5,0-21,9.4-21,21v0.7c0,11.5,9.4,21,21,21h0.7c11.5,0,21-9.4,21-21v-0.7
			C123.6,87.5,114.1,78.1,102.6,78.1L102.6,78.1z"/>
	</g>
	<path class="st1" d="M99.5,108.9L99.5,108.9c-0.7,0-1.2-0.3-1.6-0.7l-6.7-8.3c-0.7-0.9-0.6-2.1,0.3-2.8c0.9-0.7,2.1-0.6,2.8,0.3
		l5.3,6.5l10.8-11.3c0.8-0.8,2-0.8,2.8-0.1s0.8,2,0.1,2.8l-12.3,13C100.5,108.7,100,108.9,99.5,108.9z"/>
</g>
</svg>
